TITLE ""
FILE "Disc3Track09.mp3" MP3
  TRACK 01 AUDIO
    TITLE "Disc3Track09_01"
    INDEX 01 00:00:00
  TRACK 02 AUDIO
    TITLE "Disc3Track09_02"
    INDEX 01 00:01:04
  TRACK 03 AUDIO
    TITLE "Disc3Track09_03"
    INDEX 01 00:03:26
  TRACK 04 AUDIO
    TITLE "Disc3Track09_04"
    INDEX 01 00:04:41
  TRACK 05 AUDIO
    TITLE "Disc3Track09_05"
    INDEX 01 00:08:59
  TRACK 06 AUDIO
    TITLE "Disc3Track09_06"
    INDEX 01 00:09:15
  TRACK 07 AUDIO
    TITLE "Disc3Track09_07"
    INDEX 01 00:10:34
  TRACK 08 AUDIO
    TITLE "Disc3Track09_08"
    INDEX 01 00:12:12
  TRACK 09 AUDIO
    TITLE "Disc3Track09_09"
    INDEX 01 00:13:31
  TRACK 10 AUDIO
    TITLE "Disc3Track09_10"
    INDEX 01 00:13:68
  TRACK 11 AUDIO
    TITLE "Disc3Track09_11"
    INDEX 01 00:15:16
  TRACK 12 AUDIO
    TITLE "Disc3Track09_12"
    INDEX 01 00:16:31
  TRACK 13 AUDIO
    TITLE "Disc3Track09_13"
    INDEX 01 00:17:56
  TRACK 14 AUDIO
    TITLE "Disc3Track09_14"
    INDEX 01 00:18:18
  TRACK 15 AUDIO
    TITLE "Disc3Track09_15"
    INDEX 01 00:19:33
  TRACK 16 AUDIO
    TITLE "Disc3Track09_16"
    INDEX 01 00:21:34
  TRACK 17 AUDIO
    TITLE "Disc3Track09_17"
    INDEX 01 00:22:47
  TRACK 18 AUDIO
    TITLE "Disc3Track09_18"
    INDEX 01 00:27:27
  TRACK 19 AUDIO
    TITLE "Disc3Track09_19"
    INDEX 01 00:27:58
  TRACK 20 AUDIO
    TITLE "Disc3Track09_20"
    INDEX 01 00:29:10
  TRACK 21 AUDIO
    TITLE "Disc3Track09_21"
    INDEX 01 00:29:71
  TRACK 22 AUDIO
    TITLE "Disc3Track09_22"
    INDEX 01 00:31:23
  TRACK 23 AUDIO
    TITLE "Disc3Track09_23"
    INDEX 01 00:31:60
  TRACK 24 AUDIO
    TITLE "Disc3Track09_24"
    INDEX 01 00:33:10
  TRACK 25 AUDIO
    TITLE "Disc3Track09_25"
    INDEX 01 00:35:09
  TRACK 26 AUDIO
    TITLE "Disc3Track09_26"
    INDEX 01 00:36:34
  TRACK 27 AUDIO
    TITLE "Disc3Track09_27"
    INDEX 01 00:36:71
  TRACK 28 AUDIO
    TITLE "Disc3Track09_28"
    INDEX 01 00:38:13
  TRACK 29 AUDIO
    TITLE "Disc3Track09_29"
    INDEX 01 00:42:58
  TRACK 30 AUDIO
    TITLE "Disc3Track09_30"
    INDEX 01 00:43:73
  TRACK 31 AUDIO
    TITLE "Disc3Track09_31"
    INDEX 01 00:49:66
  TRACK 32 AUDIO
    TITLE "Disc3Track09_32"
    INDEX 01 00:50:14
  TRACK 33 AUDIO
    TITLE "Disc3Track09_33"
    INDEX 01 00:51:37
  TRACK 34 AUDIO
    TITLE "Disc3Track09_34"
    INDEX 01 00:53:24
  TRACK 35 AUDIO
    TITLE "Disc3Track09_35"
    INDEX 01 00:54:47
  TRACK 36 AUDIO
    TITLE "Disc3Track09_36"
    INDEX 01 00:55:07
  TRACK 37 AUDIO
    TITLE "Disc3Track09_37"
    INDEX 01 00:56:26
  TRACK 38 AUDIO
    TITLE "Disc3Track09_38"
    INDEX 01 00:57:36
  TRACK 39 AUDIO
    TITLE "Disc3Track09_39"
    INDEX 01 00:58:57
  TRACK 40 AUDIO
    TITLE "Disc3Track09_40"
    INDEX 01 00:59:17
  TRACK 41 AUDIO
    TITLE "Disc3Track09_41"
    INDEX 01 01:00:40
  TRACK 42 AUDIO
    TITLE "Disc3Track09_42"
    INDEX 01 01:01:65
  TRACK 43 AUDIO
    TITLE "Disc3Track09_43"
    INDEX 01 01:03:11
  TRACK 44 AUDIO
    TITLE "Disc3Track09_44"
    INDEX 01 01:07:34
  TRACK 45 AUDIO
    TITLE "Disc3Track09_45"
    INDEX 01 01:07:64
  TRACK 46 AUDIO
    TITLE "Disc3Track09_46"
    INDEX 01 01:09:15
  TRACK 47 AUDIO
    TITLE "Disc3Track09_47"
    INDEX 01 01:11:03
  TRACK 48 AUDIO
    TITLE "Disc3Track09_48"
    INDEX 01 01:12:29
